<?xml version="1.0" encoding="iso-8859-1"?>
<!-- Uploaded to: SVG Repo, www.svgrepo.com, Generator: SVG Repo Mixer Tools -->
<svg fill="#000000" height="800px" width="800px" version="1.1" id="Layer_1" xmlns="http://www.w3.org/2000/svg" xmlns:xlink="http://www.w3.org/1999/xlink" 
	 viewBox="0 0 214.201 214.201" xml:space="preserve">
<g>
	<g>
		<g>
			<path d="M194.368,0H31.734c-2.19,0-3.967,1.774-3.967,3.967v15.867h-11.9v7.933h11.9v15.867h-11.9v7.933h11.9v15.867h-11.9v7.933
				h11.9v15.867h-11.9v7.933h11.9v15.867h-11.9v7.933h11.9v15.867h-11.9v7.933h11.9v15.867h-11.9v7.933h11.9v15.867h-11.9v7.933
				h11.9v15.867c0,2.192,1.776,3.967,3.967,3.967h162.633c2.19,0,3.967-1.774,3.967-3.967V3.967C198.334,1.774,196.558,0,194.368,0z
				 M190.401,206.267h-154.7v-11.9h11.9v-7.933h-11.9v-15.867h11.9v-7.933h-11.9v-15.867h11.9v-7.933h-11.9v-15.867h11.9v-7.933
				h-11.9V99.167h11.9v-7.933h-11.9V75.367h11.9v-7.933h-11.9V51.567h11.9v-7.933h-11.9V27.767h11.9v-7.933h-11.9v-11.9h154.7
				V206.267z"/>
			<path d="M59.501,99.167h11.9h27.767h27.767h47.6c2.19,0,3.967-1.774,3.967-3.967V31.733c0-2.192-1.776-3.967-3.967-3.967H59.501
				c-2.19,0-3.967,1.774-3.967,3.967V95.2C55.534,97.392,57.311,99.167,59.501,99.167z M77.465,91.233l7.819-17.869l7.819,17.869
				H77.465z M105.232,91.233l7.819-17.869l7.819,17.869H105.232z M63.468,35.7h107.1v55.533h-41.04l-12.843-29.355
				c-0.632-1.445-2.057-2.378-3.633-2.378c-1.577,0-3.002,0.934-3.633,2.378l-10.25,23.428l-10.25-23.428
				c-0.631-1.445-2.057-2.379-3.633-2.379c-1.576,0-3.002,0.934-3.633,2.378L68.808,91.233h-5.34V35.7z"/>
			<path d="M59.501,190.4h51.567h51.567h11.9c2.19,0,3.967-1.774,3.967-3.967v-63.467c0-2.192-1.776-3.967-3.967-3.967H59.501
				c-2.19,0-3.967,1.774-3.967,3.967v63.467C55.534,188.626,57.311,190.4,59.501,190.4z M118.825,182.467l18.026-24.958
				l18.026,24.958H118.825z M63.468,126.933h107.1v55.533h-5.904l-24.597-34.057c-1.491-2.061-4.939-2.061-6.43,0l-24.597,34.057
				H63.468V126.933z"/>
			<path d="M146.768,71.4c8.749,0,15.867-7.116,15.867-15.867c0-8.751-7.118-15.867-15.867-15.867
				c-8.749,0-15.867,7.116-15.867,15.867C130.901,64.284,138.019,71.4,146.768,71.4z M146.768,47.6c4.375,0,7.933,3.56,7.933,7.933
				c0,4.373-3.558,7.933-7.933,7.933s-7.933-3.56-7.933-7.933C138.835,51.16,142.392,47.6,146.768,47.6z"/>
			<path d="M87.268,130.9c-8.749,0-15.867,7.116-15.867,15.867c0,8.751,7.118,15.867,15.867,15.867
				c8.749,0,15.867-7.116,15.867-15.867C103.134,138.016,96.017,130.9,87.268,130.9z M87.268,154.7c-4.375,0-7.933-3.56-7.933-7.933
				c0-4.373,3.558-7.933,7.933-7.933s7.933,3.56,7.933,7.933C95.201,151.14,91.643,154.7,87.268,154.7z"/>
		</g>
	</g>
</g>
</svg>